<svg xmlns="http://www.w3.org/2000/svg" viewBox="32 -16 40 40" enable-background="new 32 -16 40 40"><g><path d="M47.337-4.273l12.23 7.214-1.524 2.584-12.23-7.214zM44.145 2.625l13.713 3.686-.779 2.897-13.713-3.686zM42.873 8.96l14.14 1.304-.275 2.987-14.14-1.304zM42.4 14.2h14.2v3h-14.2zM61.3 21.2v.7h-23.3l-.1-14.7h2.4v12.4h18.6v-12.4h2.4v14zM60.043 2.4l-8-11.732 2.479-1.69 8 11.732zM63.083.486l-2.428-13.991 2.956-.513 2.428 13.991z"/></g><path d="M60.4-2.3h-5.7v-3.7c0-1.4.9-1.7 1.6-1.7h4v-6.3h-5.5c-6.1 0-7.5 4.6-7.5 7.5v4.1h-3.6v6.4h3.6v18h7.5v-18h5l.6-6.3z"/><path d="M70-7.2c-1.3.6-2.7 1-4.2 1.2 1.5-.9 2.7-2.4 3.2-4.1-1.4.8-3 1.5-4.7 1.8-1.3-1.4-3.3-2.3-5.4-2.3-4.1 0-7.4 3.3-7.4 7.4 0 .6.1 1.1.2 1.7-6.1-.3-11.6-3.2-15.2-7.7-.6 1.1-1 2.4-1 3.7 0 2.6 1.3 4.8 3.3 6.1-1.2 0-2.3-.4-3.3-.9v.1c0 3.6 2.5 6.6 5.9 7.2-.6.2-1.3.3-1.9.3-.5 0-.9 0-1.4-.1.9 2.9 3.7 5.1 6.9 5.1-2.5 2-5.7 3.2-9.2 3.2-.6 0-1.2 0-1.8-.1 3.3 2.1 7.2 3.3 11.3 3.3 13.6 0 21-11.3 21-21v-1c1.5-1.1 2.7-2.4 3.7-3.9z"/><path d="M52-13.5c-9.9 0-18 8-18 18 0 7.9 5.2 14.7 12.3 17.1.9.2 1.2-.4 1.2-.9v-3.3c-5 1.1-6.1-2.1-6.1-2.1-.8-2.1-2-2.6-2-2.6-1.6-1.1.1-1.1.1-1.1 1.8.1 2.8 1.9 2.8 1.9 1.6 2.7 4.2 2 5.2 1.5.2-1.2.6-2 1.1-2.4-4-.5-8.2-2-8.2-8.9 0-2 .7-3.6 1.9-4.8-.2-.5-.8-2.3.2-4.8 0 0 1.5-.5 5 1.8 1.4-.4 3-.6 4.5-.6s3.1.2 4.5.6c3.4-2.3 4.9-1.8 4.9-1.8 1 2.5.4 4.3.2 4.8 1.2 1.3 1.9 2.9 1.9 4.8 0 6.9-4.2 8.4-8.2 8.9.6.6 1.2 1.7 1.2 3.3v4.9c0 .5.3 1 1.2.9 7.1-2.6 12.3-9.3 12.3-17.3 0-9.9-8.1-17.9-18-17.9z"/><path d="M43.8-12.4c-2.5 0-5 .8-7 2.8-3.8 3.9-3.7 10 0 13.9l15.2 16.1 15.2-16.1c3.7-3.9 3.8-10 0-13.9-3.8-3.8-10.1-3.8-13.9 0l-1.2 1.3-1.2-1.3c-2-1.9-4.6-2.8-7.1-2.8z"/></svg>