
<svg version="1.1" xmlns="http://www.w3.org/2000/svg" xmlns:xlink="http://www.w3.org/1999/xlink" x="0px" y="0px" viewBox="0 0 300 198.5" style="enable-background:new 0 0 300 198.5;" xml:space="preserve">
<style type="text/css">
	.st0{fill:#0071C5;}
</style>
<path class="st0" d="M123.1,132.5V90.1c0-8.6-4.6-18.1-18-18.1l-31.6,0v60.5h15.3V84.4h12.7c4.5,0,6.4,2.2,6.4,5.8v42.3H123.1z
	 M219.4,101.4c0-17.3-9.4-30.5-25.7-30.5c-16.1,0-28.4,11.3-28.4,31.2c0,23.3,14,31.3,28.7,31.3c11.2,0,17.6-3.6,23.6-9.6l-9.5-9
	c-3.9,3.9-7.3,5.8-14,5.8c-8.7,0-13.6-5.8-13.6-13.6h38.9V101.4z M180.5,96.5c0.1-2.7,0.5-4.4,1.5-6.6c1.7-3.7,5.7-6.3,11-6.3
	c7.8,0,10.8,6.3,11.1,12.9H180.5z M134.6,55.5v59.6c0,8.6,5.3,17.3,17.8,17.3h0h9.1v-12.8h-6.2c-3.6,0-5.3-2-5.3-5.5V84.4h11.5V72
	h-11.5V55.5H134.6z M59.9,49H44.4v14.7h15.4V49z M59.9,133.1L59.9,133.1l0-61.1H44.4l0,44.9C44.4,125,48.3,132,59.9,133.1z
	 M243.7,46.9h-15.4v68.7c0,8.1,3.9,15.1,15.4,16.2V46.9z M297.7,56.8C283.7-11.4,151.3-15.7,66,36.3V42
	C151.2-1.8,272.1-1.6,283.1,61.3c3.7,20.8-8,42.4-28.9,54.9v16.3C279.4,123.2,305.2,93.4,297.7,56.8z M13.7,127
	c-4.2-22.7,6.1-46.7,19.8-61.7v-8C8.9,79-4.5,106.4,3.2,138.8c9.8,41.5,62.5,65,142.9,57.2c31.8-3.1,73.4-13.3,102.4-29.2v-22.6
	c-26.3,15.6-69.7,28.6-105.9,31.9C83.7,181.6,22.3,173.1,13.7,127z M260.4,59.2c3.4,0,6.2-2.8,6.2-6.1c0-3.4-2.8-6.1-6.2-6.1
	c-3.4,0-6.1,2.8-6.1,6.1C254.2,56.4,256.9,59.2,260.4,59.2z M260.4,47.9c2.8,0,5.1,2.3,5.1,5.1c0,2.8-2.3,5.1-5.1,5.1
	c-2.8,0-5.1-2.3-5.1-5.1C255.3,50.2,257.5,47.9,260.4,47.9z M257.9,56.7h1c0.2,0,0.3-0.2,0.3-0.3v-2.6h0.7c0.1,0,0.2,0.1,0.2,0.1
	l1.6,2.6c0,0.1,0.1,0.2,0.2,0.2h1.1v0c0.2,0,0.2-0.1,0.2-0.2c0-0.1,0-0.1,0-0.2l-1.6-2.7c0.9-0.3,1.4-0.9,1.4-2v-0.1
	c0-1.8-1.1-2.3-3-2.3c-0.5,0-1.5,0-1.9,0.1c-0.3,0-0.5,0.2-0.5,0.6v6.6C257.6,56.6,257.8,56.7,257.9,56.7z M259.2,50.5h1
	c1,0,1.4,0.2,1.4,1v0v0.1c0,0.7-0.4,1-1.4,1c-0.1,0-0.8,0-1,0V50.5z"/>
</svg>
