<?xml version="1.0" encoding="utf-8"?>
<!-- Generator: Adobe Illustrator 19.1.0, SVG Export Plug-In . SVG Version: 6.00 Build 0)  -->
<svg version="1.1" id="Layer_1" xmlns="http://www.w3.org/2000/svg" xmlns:xlink="http://www.w3.org/1999/xlink" x="0px" y="0px"
	 viewBox="0 0 121 69" style="enable-background:new 0 0 121 69;" xml:space="preserve">
<style type="text/css">
	.st0{fill:#333333;}
</style>
<g>
	<path class="st0" d="M12.8,37.3c0.3-1.3,0.6-2.6,0.9-3.9c0.8-3.9,1.7-7.9,2.5-11.9c0.2,0,0.4,0,0.5,0c1.7,0,3.3,0,5,0
		c2.8-0.1,4.9,2.1,4,5.3c-0.7,2.8-3.5,5-6.3,4.9c-0.5,0-1.1-0.1-1.4,0.1c-0.3,0.2-0.3,0.9-0.4,1.3c-0.1,0.3-0.1,0.5-0.2,0.8
		C17,36,15,37.6,12.8,37.6C12.8,37.5,12.8,37.4,12.8,37.3z M20.1,27.7C20.1,27.7,20.1,27.7,20.1,27.7c0.4,0,0.8,0,1.1,0
		c0.7,0,1.2-0.4,1.5-1.1c0.3-0.8-0.2-1.4-1-1.5c-0.7,0-1.5,0-2.2,0c-0.7,0-1.3,0.5-1.5,1.2c-0.2,0.7,0.2,1.3,0.9,1.4
		C19.3,27.8,19.7,27.7,20.1,27.7z"/>
	<path class="st0" d="M70.2,15.4c1.1,0.6,1.2,0.8,1,2.1c-0.2,1.2-0.5,2.4-0.7,3.5c0,0.1,0,0.3-0.1,0.5c0.6,0,1.1-0.1,1.7,0
		c2.5,0.3,3.9,2.4,3.3,4.9c-0.6,3-3.5,5.3-6.5,5.1c-0.5,0-1.1-0.2-1.6-0.4c-1.1-0.5-2-0.6-2.9,0.4c0.2-1.1,0.4-2.1,0.7-3.2
		c0.7-3.5,1.5-7,2.2-10.4c0.2-1.2,0.9-2.1,2-2.5C69.6,15.4,69.9,15.4,70.2,15.4z M70.1,27.7C70.1,27.7,70.1,27.7,70.1,27.7
		c0.4,0,0.9,0,1.3,0c0.7-0.1,1.1-0.5,1.3-1.2c0.2-0.7-0.2-1.3-0.9-1.3c-0.8,0-1.6,0-2.4,0c-0.8,0-1.4,0.6-1.5,1.4
		c-0.1,0.6,0.3,1,0.9,1.1C69.3,27.7,69.7,27.7,70.1,27.7z"/>
	<path class="st0" d="M66.2,15.4c-0.2,1.1-0.4,2.2-0.6,3.2c-0.7,3.6-1.5,7.2-2.3,10.8c-0.2,1.1-1.1,2-2.1,2.1
		c-1.3,0.2-2.1-0.7-1.9-2c0.2-1.1,0.5-2.1,0.7-3.2c0.1-0.3,0.1-0.6,0.2-0.9c-0.3,0-0.4,0-0.6,0c-1.1-0.1-1.7-0.9-1.5-1.9
		c0.2-1.2,1.2-2,2.5-2.1c0.4,0,0.6-0.1,0.6-0.5c0.2-1.6,0.8-2.9,2-4c0.8-0.7,1.7-1.1,2.7-1.4C66,15.4,66.1,15.4,66.2,15.4z"/>
	<path class="st0" d="M98.2,21.4c-0.3,1.6-1.5,2.5-3,2.5c-0.9,0-1.7,0-2.6,0c-0.2,0-0.5,0-0.7,0.2c-0.2,0.2-0.3,0.5-0.3,0.7
		c0,0.2,0.4,0.3,0.6,0.4c0.8,0,1.6,0,2.3,0c1.9,0,2.9,1.3,2.6,3.1c-0.3,1.6-1.9,3.1-3.6,3.2c-2.4,0-4.8,0-7.3,0
		c0.1-1,1.1-2.1,2.3-2.4c0.4-0.1,0.8-0.1,1.3-0.2c0.8,0,1.5,0,2.3,0c0.2,0,0.5-0.1,0.7-0.3c0.1-0.1,0.2-0.4,0.1-0.6
		c-0.1-0.2-0.3-0.3-0.5-0.3c-0.8,0-1.6,0-2.4,0c-1.8,0-2.9-1.4-2.5-3.2c0.4-1.8,2-3.1,3.9-3.1c2.1,0,4.2,0,6.3,0
		C97.9,21.4,98,21.4,98.2,21.4z"/>
	<path class="st0" d="M87.1,21.5c-0.7,3.4-1.4,6.8-2.2,10.2c-0.9-1.3-2-1-3.1-0.5c-0.1,0-0.2,0.1-0.3,0.1c-1,0.3-2,0.4-3.1,0
		c-1.9-0.7-2.9-2.6-2.4-4.8c0.6-2.9,3.3-5,6.2-5C83.9,21.5,85.4,21.5,87.1,21.5z M80.8,27.7C80.8,27.7,80.8,27.7,80.8,27.7
		c0.4,0,0.9,0,1.3,0c0.7-0.1,1.1-0.4,1.3-1c0.3-0.7-0.1-1.4-0.8-1.5c-0.8,0-1.7,0-2.5,0c-0.6,0-1.2,0.6-1.3,1.2
		c-0.2,0.7,0.2,1.3,0.9,1.3C80.1,27.7,80.4,27.7,80.8,27.7z"/>
	<path class="st0" d="M58.3,15.6c-0.5,2.2-2.5,3.8-4.6,3.8c-0.7,0-1.4,0-2,0c-0.6-0.1-1.4,0.8-1.5,1.2c-0.1,0.5,0.2,1,0.8,1
		c0.8,0,1.6,0,2.4,0c-0.3,1.5-1.2,2.4-2.6,2.6c-0.5,0.1-0.6,0.4-0.7,0.8c-0.2,1-0.4,2-0.6,2.9c-0.6,2.1-2,3.3-4.2,3.6
		c0,0-0.1,0-0.1,0c0,0-0.1,0-0.1-0.1c0.4-1.9,0.8-3.8,1.2-5.6c0.4-1.8,0.8-3.5,1.1-5.3c0.5-2.6,3.4-4.9,6-5
		C55.1,15.6,56.7,15.6,58.3,15.6z"/>
	<path class="st0" d="M34.9,27.5c0-3.5,3.7-6.6,7.1-6c2,0.4,3.3,2.1,3.1,4.3c-0.2,3.1-3.2,5.8-6.2,5.7
		C36.6,31.5,34.9,29.8,34.9,27.5z M40.3,25.2C40.3,25.2,40.3,25.2,40.3,25.2c-0.4,0-0.8,0-1.2,0c-0.7,0-1.2,0.5-1.4,1.1
		c-0.2,0.7,0.2,1.3,0.9,1.4c0.8,0,1.6,0,2.4,0c0.7,0,1.1-0.5,1.3-1.1c0.3-0.7-0.2-1.4-0.9-1.4C41,25.2,40.7,25.2,40.3,25.2z"/>
	<path class="st0" d="M107,31.6c-0.8,0-1.7,0-2.5,0c-1,0-2,0.1-3-0.1c-2.4-0.3-3.8-2.4-3.3-4.9c0.5-2.8,3.5-5.3,6.4-5.2
		c1.9,0.1,3.4,1.2,3.7,3c0.1,0.7,0,1.5,0,2.3c0,0.3-0.2,0.4-0.5,0.4c-1.6,0-3.2,0-4.8,0c-0.6,0-1.1,0.2-1.4,0.8
		c-0.3,0.7,0,1.2,0.8,1.3c0.8,0,1.6,0,2.4,0.1C105.6,29.4,106.8,30.5,107,31.6z M103.5,25.6C103.5,25.7,103.5,25.7,103.5,25.6
		c0.3,0,0.6,0,0.9,0c0.6-0.1,0.9-0.4,1.1-1c0.2-0.6-0.2-1-0.8-1c-0.5,0-1,0-1.5,0c-0.6,0-1,0.3-1.2,0.8c-0.2,0.6,0.1,1.1,0.7,1.2
		C102.9,25.7,103.2,25.6,103.5,25.6z"/>
	<path class="st0" d="M25.4,31.6c0.4-1.9,0.7-3.9,1.3-5.7c0.8-2.6,3.3-4.4,6.1-4.4c1.3,0,2.5,0,3.8,0c-0.6,1.7-1.5,3-3.2,3.7
		c-0.5,0.2-1.1,0.3-1.6,0.3c-0.8,0.1-1.3,0.5-1.5,1.2c-0.1,0.4-0.2,0.8-0.2,1.2C29.7,29.8,27.5,31.6,25.4,31.6z"/>
	<path class="st0" d="M51.9,31.6c0.6-2.7,1.1-5.4,1.7-8.1c0.3-1.2,1.2-2,2.3-2.1c1-0.1,1.8,0.7,1.7,1.7c-0.3,1.8-0.6,3.6-1.1,5.3
		C55.9,30.2,53.6,31.7,51.9,31.6z"/>
	<path class="st0" d="M94.7,33.7c0.6,0,1.1,0,1.7,0c0.9,0,1.6,0.6,1.6,1.5c0,0.9-0.6,1.7-1.5,1.7c-1.3,0-2.6,0-3.9,0
		c-0.8,0-1.4-0.8-1.4-1.6c0-0.8,0.7-1.6,1.5-1.6C93.4,33.7,94,33.7,94.7,33.7z"/>
	<path class="st0" d="M86.3,33.7c0.6,0,1.2,0,1.7,0c0.9,0,1.6,0.6,1.6,1.5c0,0.8-0.6,1.6-1.5,1.7c-1.3,0-2.6,0-3.9,0
		c-0.8,0-1.4-0.7-1.4-1.6c0-0.8,0.6-1.5,1.5-1.6c0,0,0.1,0,0.1,0C85,33.7,85.7,33.7,86.3,33.7z"/>
	<path class="st0" d="M103,33.7c0.6,0,1.1,0,1.7,0c0.9,0,1.6,0.7,1.6,1.5c0,0.9-0.7,1.6-1.6,1.6c-1.2,0-2.5,0-3.7,0
		c-0.9,0-1.4-0.7-1.4-1.6c0-0.8,0.7-1.5,1.5-1.6c0,0,0.1,0,0.1,0C101.8,33.7,102.4,33.7,103,33.7z"/>
</g>
</svg>
