<?xml version="1.0" encoding="UTF-8" standalone="no"?>
<svg xmlns="http://www.w3.org/2000/svg" height="130" width="710" preserveAspectRatio="xMidYMid" xmlns:xlink="http://www.w3.org/1999/xlink" viewBox="0 0 71 13">
 <defs>
  <style>.cls-2 {
        fill: #000;
      }</style>
 </defs>
 <path id="path-1" class="cls-2" fill-rule="evenodd" d="m69.599 2.17c-0.509 0-0.716 0.097-1.098 0.548-0.175 0.206-4.117 4.884-4.224 5.011-0.056 0.067-0.051 0.159-0.051 0.214v2.28c0 0.046 0.01 0.263 0.03 0.312 0.047 0.117 0.15 0.229 0.301 0.277 0.052 0.017 0.321 0.025 0.382 0.025h1.434v1.443h-7.615v-1.443l1.358 0.001c0.061 0 0.334-0.008 0.386-0.025 0.151-0.049 0.254-0.16 0.301-0.277 0.02-0.049 0.03-0.266 0.03-0.312 0 0 0.001-2.205 0.001-2.281 0-0.055-0.004-0.079-0.093-0.2-0.099-0.134-3.999-4.731-4.177-4.932-0.222-0.252-0.611-0.641-1.203-0.641h-1.356v-1.444h7.654v1.442h-0.923c-0.213 0-0.354 0.211-0.172 0.445 0 0 2.575 3.204 2.599 3.238 0.025 0.033 0.045 0.041 0.078 0.01 0.032-0.032 2.639-3.218 2.66-3.244 0.124-0.155 0.04-0.447-0.227-0.447h-0.947v-1.444h6.273v1.444h-1.401zm-19.063 0.897l0.119 9.217h-2.236l-8.791-8.161 0.001 5.792c0.008 0.629 0.036 0.926 0.66 0.926h1.568v1.442h-6.41v-1.442h1.498c0.56 0 0.538-0.555 0.538-0.959v-6.761c0-0.436-0.059-0.95-0.938-0.95h-1.215v-1.445h5.459l7.634 7.164-0.079-4.823c-0.008-0.633-0.12-0.897-0.777-0.897h-1.436v-1.443h6.527v1.443h-1.4c-0.671 0-0.713 0.224-0.722 0.897zm-25.241 9.933c-2.572 0-4.959-0.802-6.553-2.289-1.204-1.124-1.783-2.651-1.783-4.222 0-1.553 0.604-3.09 1.783-4.208 1.479-1.402 4.093-2.281 6.553-2.281 2.722 0 4.901 0.714 6.567 2.285 1.185 1.119 1.758 2.649 1.758 4.204 0 1.507-0.608 3.111-1.758 4.222-1.551 1.497-3.989 2.289-6.567 2.289zm3.515-9.91c-0.872-0.894-2.169-1.397-3.515-1.397-1.351 0-2.649 0.498-3.522 1.397-0.841 0.867-1.284 2.094-1.284 3.399 0 1.301 0.447 2.526 1.284 3.392 0.874 0.904 2.167 1.404 3.522 1.404 1.365 0 2.631-0.49 3.515-1.404 0.879-0.909 1.288-2.027 1.288-3.392 0-1.308-0.442-2.532-1.288-3.399zm-21.726 1.536c0.968 0.105 2.99 0.387 3.884 0.615 0.461 0.118 1.024 0.327 1.381 0.502 0.41 0.199 0.803 0.46 1.125 0.794 0.236 0.246 0.907 1.054 0.907 2.355 0 1.355-0.772 2.102-1.123 2.393-0.65 0.539-1.45 0.886-2.097 1.078-0.687 0.205-1.681 0.517-3.531 0.517-1.134 0-1.722-0.142-2.634-0.339-1.112-0.243-2.176-0.683-2.538-0.854-0.292-0.138-0.375 0.151-0.375 0.22v0.615h-1.736v-4.549h1.562c0 0.54 0.246 1.085 0.403 1.284 0.629 0.799 1.304 1.114 1.947 1.352 0.558 0.207 2.089 0.606 3.363 0.606 1.724 0 2.684-0.458 2.823-0.515 0.139-0.058 0.939-0.328 0.939-1.21 0-0.886-0.76-1.049-1.212-1.168-0.568-0.15-1.965-0.298-3.384-0.453-1.43-0.156-2.866-0.391-3.537-0.543-1.503-0.342-2.077-0.924-2.434-1.266 0.022 0.022-0.817-0.782-0.816-2.156 0-1.525 1.003-2.444 2.229-3.013 1.327-0.617 2.891-0.885 4.266-0.885 2.428 0.004 4.408 0.829 5.108 1.21 0.279 0.16 0.427-0.033 0.427-0.182v-0.46h1.564v3.96h-1.401c-0.151-0.733-0.57-1.257-0.868-1.51-0.264-0.224-0.596-0.414-0.88-0.546-0.836-0.388-2.149-0.757-3.7-0.751-1.312 0-2.57 0.253-3.193 0.658-0.393 0.256-0.591 0.572-0.591 0.945 0 0.524 0.434 0.739 0.647 0.808 0.702 0.226 2.462 0.378 3.475 0.488z"/>
</svg>
