<svg version="1.1" id="Layer_1" xmlns="http://www.w3.org/2000/svg" xmlns:xlink="http://www.w3.org/1999/xlink" x="0px" y="0px"
     viewBox="0 0 146 54" enable-background="new 0 0 146 54" xml:space="preserve">
<g>
    <path fill="#FFFFFF" d="M143.892746,2.107248v35.54221H39.96188h-0.873367l-0.617287,0.617821l-9.652117,9.660076v-8.17065
        v-2.107246h-2.107241H3.613186l17.773521-35.54221H143.892746 M146,0H20.08445L0.203396,39.756702h26.508472v13.260921
        L39.96188,39.756702H146V0L146,0z"/>
    <g>
        <path fill="#FFFFFF" d="M42.377232,11.061643c0,0.76406-0.656643,1.316721-1.367367,1.316721
            c-0.684658,0-1.292328-0.552661-1.292328-1.316721c0-0.816702,0.60767-1.344599,1.292328-1.344599
            C41.720589,9.717044,42.377232,10.244941,42.377232,11.061643z M42.089027,26.510353h-2.108238V13.828244h2.108238V26.510353z"/>
        <path fill="#FFFFFF" d="M46.619267,17.862318v8.648035h-2.136303V13.801947h1.684093l0.291592,1.294002
            c0.474003-1.108898,1.498295-1.371174,2.210594-1.425395c2.290188-0.131347,4.18726,2.006166,4.18726,4.191765v8.648035h-2.134769
            v-8.648035c0-1.106855-0.944565-2.056297-2.078041-2.056297C47.537811,15.806021,46.619267,16.755463,46.619267,17.862318z"/>
        <path fill="#FFFFFF" d="M57.465118,26.510353h-2.106426V12.721157c0-2.451963,2.342499-4.244173,5.002426-4.244173v2.108938
            c-1.550888,0-2.896,0.975739-2.896,2.135235v3.901381h2.607567v2.109123h-2.607567V26.510353z"/>
        <path fill="#FFFFFF" d="M69.891273,22.447704c0,2.822588-2.158096,4.193764-4.290779,4.193764
            c-2.158741,0-4.265171-1.371176-4.265171-4.193764v-4.611452c0-2.847165,2.132729-4.165699,4.265171-4.165699
            c2.158287,0,4.290779,1.318534,4.290779,4.165699V22.447704z M67.758781,17.836252
            c0-1.344645-1.078888-2.056528-2.158287-2.056528c-1.053093,0-2.158741,0.711884-2.158741,2.056528v4.611452
            c0,1.346643,1.105648,2.031767,2.158741,2.031767c1.079399,0,2.158287-0.685123,2.158287-2.031767V17.836252z"/>
        <path fill="#FFFFFF" d="M76.088181,31.701878c-0.917107,0-2.314392-0.500019-3.341377-1.424698l1.212135-1.686045
            c0.761269,0.631134,1.631264,0.949675,2.129242,0.949675c1.159172,0,2.108009-0.897034,2.108009-2.004585v-2.239588
            c-0.366585,1.028149-1.420143,1.292191-2.05407,1.292191c-2.210831,0-4.23864-1.451925-4.23864-3.927444v-5.063107
            c0-2.10917,2.055458-4.113058,4.23864-3.927723c0.843277,0.078753,1.896843,0.397015,2.23941,1.61073l0.208885-1.479337h1.737801
            v13.734278C80.328217,29.935966,78.353462,31.701878,76.088181,31.701878z M74.035973,22.661383
            c-0.077034,1.237783,1.054863,1.790396,2.158234,1.790396c1.001015,0,2.001984-0.685122,2.001984-1.764517v-5.167505
            c0-0.949442-1.10611-1.685812-2.05407-1.713736c-1.079811,0-2.106148,0.738228-2.106148,1.792255V22.661383z"/>
        <path fill="#FFFFFF" d="M82.366722,26.510353V13.882697h1.764053l0.237,1.291957
            c0.737717-1.872959,2.764603-1.899488,4.186516-0.76406l-0.736794,1.923556
            c-1.238846-0.871156-3.133881-0.657432-3.342819,1.078978v9.097225H82.366722z"/>
        <path fill="#FFFFFF" d="M91.608902,25.218117c0,0.81489-0.55191,1.344412-1.369408,1.344412
            c-0.788872,0-1.316345-0.529522-1.316345-1.344412c0-0.792635,0.527473-1.37294,1.316345-1.37294
            C91.056992,23.845177,91.608902,24.425482,91.608902,25.218117z"/>
        <path fill="#FFFFFF" d="M94.574409,22.447704v-0.736416c0-2.213755,1.685623-4.113012,4.106323-4.113012
            c0.845085,0,1.870079,0.554659,2.160088,1.399052l-0.05394-1.10848c0-1.106853-0.918549-2.030417-2.052254-2.030417
            c-0.52562,0-1.28875,0.316497-2.003334,1.001851l-1.154572-1.764333c0.894531-0.818281,2.130173-1.397239,3.157906-1.397239
            c2.238518,0,4.1847,1.869568,4.1847,4.190138v8.621506h-1.707832l-0.213913-1.348501
            c-0.263252,1.11257-1.606361,1.505495-2.262955,1.505495C96.471252,26.667347,94.574409,24.717215,94.574409,22.447704z
             M98.734627,24.530718c0.999153,0,2.052254-0.81712,2.052254-1.764982v-1.290379c0-1.056072-0.918549-1.794067-2.052254-1.794067
            c-1.105644,0-2.029167,0.898613-2.029167,2.029999v0.736416C96.70546,23.584713,97.628983,24.530718,98.734627,24.530718z"/>
        <path fill="#FFFFFF" d="M107.091209,26.510353h-2.103874V13.828244h1.655289l0.26506,1.240013
            c0.527481-1.027219,1.500801-1.369548,2.263885-1.397704c1.054443-0.026065,2.446945,0.473955,3.103081,2.109171
            c0.634384-1.635216,1.923553-2.109171,3.137505-2.109171c2.263,0,4.105904,1.846477,4.105904,4.191765v8.648035h-2.108009
            v-8.648035c0.029037-2.873231-4.106323-2.741652-4.106323,0v8.648035h-2.106201v-8.648035
            c0-1.106855-0.920311-2.056297-2.079895-2.056297c-1.131897,0-2.026421,0.949442-2.026421,2.056297V26.510353z"/>
    </g>
</g>
</svg>
