<?xml version="1.0" encoding="utf-8"?>
<!-- Generator: Adobe Illustrator 19.2.0, SVG Export Plug-In . SVG Version: 6.00 Build 0)  -->
<svg version="1.1" id="Layer_1" xmlns="http://www.w3.org/2000/svg" xmlns:xlink="http://www.w3.org/1999/xlink" x="0px" y="0px"
	 viewBox="0 0 380 380" style="enable-background:new 0 0 380 380;" xml:space="preserve">
<style type="text/css">
	.st0{fill-rule:evenodd;clip-rule:evenodd;fill:#D4D4D4;}
	.st1{fill-rule:evenodd;clip-rule:evenodd;fill:url(#SVGID_1_);}
	.st2{fill-rule:evenodd;clip-rule:evenodd;fill:#BCBCBC;}
	.st3{fill:#666666;}
	.st4{fill:#4D4D4D;}
	.st5{fill-rule:evenodd;clip-rule:evenodd;fill:#F2F2F2;}
	.st6{fill-rule:evenodd;clip-rule:evenodd;fill:#9B949B;}
	.st7{fill-rule:evenodd;clip-rule:evenodd;fill:#A6A6A6;}
	.st8{fill:#FFFFFF;}
	.st9{fill:#F4CAB1;}
	.st10{fill:#AC5C51;}
	.st11{fill:none;stroke:#AC5C51;stroke-width:2.8429;stroke-linecap:round;stroke-miterlimit:10;}
	.st12{fill-rule:evenodd;clip-rule:evenodd;fill:#E6E6E6;}
	.st13{fill-rule:evenodd;clip-rule:evenodd;fill:url(#SVGID_4_);}
	.st14{fill-rule:evenodd;clip-rule:evenodd;fill:url(#SVGID_5_);}
</style>
<g>
	<polygon class="st0" points="93.5,208 59,202.7 58.5,201.6 153.7,183.9 186.8,187.8 186.8,195.9 97.5,218.8 	"/>
	<linearGradient id="SVGID_1_" gradientUnits="userSpaceOnUse" x1="123.2438" y1="197.7875" x2="120.3683" y2="186.1748">
		<stop  offset="0" style="stop-color:#D8D8D8"/>
		<stop  offset="1" style="stop-color:#C7C7C7"/>
	</linearGradient>
	<polygon class="st1" points="92.9,206.9 58.5,201.6 153.1,182.8 186.2,186.7 186.2,194.8 96.9,217.7 	"/>
	<polygon class="st2" points="186.8,187.7 227.5,168.5 303.3,189.5 303.9,190.6 261.3,209.9 261.3,217.9 186.8,217.9 	"/>
	<polygon class="st3" points="186.2,186.6 260.8,208.8 260.8,255.1 178.6,266 	"/>
	<polygon class="st4" points="92.2,207.6 185.5,187.3 185.5,262.4 92.2,245.7 	"/>
	<polygon class="st5" points="165.2,231.4 165.2,233.2 194.9,269.8 291.6,246.4 293,245.3 259.3,209.9 	"/>
	<polygon class="st6" points="203.8,222.6 195.8,268.3 194.9,269.8 291.6,246.4 293,245.3 259.3,209.9 	"/>
	<polygon class="st7" points="121.5,270 165.3,233.2 165.2,231.4 93.8,208 49.2,241.4 50.1,242.5 	"/>
	<polygon class="st0" points="121.5,270 119.5,267.4 115.1,215 93.8,208 49.2,241.4 50.1,242.5 121.5,270 	"/>
	<g>
		<g>
			<path d="M218.5,212.8c0.1-21.7,0.9-14.8,0-21.9c-1.3-9.5-11.5-18.2-11.5-18.2c56.6-2.3,77.4-40,77.4-73.9
				c0-33.9-18.4-47.7-18.4-47.7c1.4-45.1-3.4-42.3-3.4-42.3c-25.4-0.9-44.8,15.6-44.8,15.6c-13.8-5.6-38.2-4.6-38.2-4.6
				s-24.4-1.1-38.2,4.6c0,0-19.3-16.5-44.8-15.6c0,0-4.8-2.8-3.4,42.3c0,0-18.4,13.8-18.4,47.7c0,33.9,20.8,71.6,77.4,73.9
				c0,0-11.2,8.7-12.4,18.2c-0.9,7.5-17,7.2-17,7.2s-21.7-3.7-27.2-19.8c-5.6-16.1-27-14-27.6-10.2c-0.5,3.9,10.9,6.1,14.3,12.8
				c3.4,6.7,9.7,25.3,18.3,29.1c8.6,3.8,24.9,9.4,40.1,2.7c0.4,7.9,1,26.1-0.2,33.1c-0.5,2.7-2.6,7.6-6.7,8.9
				c-4.1,1.3-8.6,3.2-8.4,5c0.2,1.9,8.5,3.2,15.6,1.1c7.2-2.1,12.2-7.3,14.8-12.9c1.4-3,0.8-29.4,0.3-43.6l0,0c0,0,1.1-7.3,4.7-9.4
				c0.4,15.8,1.8,43.2-0.1,56.2c-0.4,3-2.6,8.7-6.7,10.2c-4.1,1.5-8.6,3.6-8.4,5.8c0.2,2.2,8.5,3.6,15.6,1.2
				c7.2-2.4,12.2-8.4,14.8-14.8c1.4-3.5,1.2-43.3,1-63.9c0,0,0.5-1.3,2.5-1.3c1.9,0,2.5,1.3,2.5,1.3c-0.2,20.6-0.4,60.4,1,63.9
				c2.6,6.4,7.6,12.4,14.8,14.8c7.2,2.4,15.4,0.9,15.6-1.2c0.2-2.1-4.3-4.3-8.4-5.8c-4.1-1.5-6.3-7.2-6.7-10.2
				c-1.9-13-0.5-40.4-0.1-56.2"/>
			<g>

					<ellipse transform="matrix(9.459379e-02 -0.9955 0.9955 9.459379e-02 -83.2701 317.7081)" class="st8" cx="133" cy="204.6" rx="2" ry="3"/>

					<ellipse transform="matrix(9.473179e-02 -0.9955 0.9955 9.473179e-02 -92.6088 308.2514)" class="st8" cx="123.2" cy="205" rx="2" ry="3"/>

					<ellipse transform="matrix(9.482676e-02 -0.9955 0.9955 9.482676e-02 -99.3164 297.9185)" class="st8" cx="114.2" cy="203.6" rx="2" ry="3"/>

					<ellipse transform="matrix(9.504602e-02 -0.9955 0.9955 9.504602e-02 -103.238 285.4452)" class="st8" cx="105.4" cy="199.5" rx="2" ry="3"/>

					<ellipse transform="matrix(9.482576e-02 -0.9955 0.9955 9.482576e-02 -102.9107 274.2765)" class="st8" cx="99.4" cy="193.7" rx="2" ry="3"/>

					<ellipse transform="matrix(9.504592e-02 -0.9955 0.9955 9.504592e-02 -100.3353 264.5855)" class="st8" cx="95.4" cy="187.5" rx="2" ry="3"/>

					<ellipse transform="matrix(9.459379e-02 -0.9955 0.9955 9.459379e-02 -97.0101 254.4966)" class="st8" cx="91.4" cy="180.6" rx="2" ry="3"/>

					<ellipse transform="matrix(9.482556e-02 -0.9955 0.9955 9.482556e-02 -94.4361 244.8061)" class="st8" cx="87.4" cy="174.3" rx="2" ry="3"/>

					<ellipse transform="matrix(9.483670e-02 -0.9955 0.9955 9.483670e-02 -96.0535 233.9459)" class="st8" cx="80.6" cy="169.8" rx="2" ry="3"/>
			</g>
			<path class="st9" d="M254,117.2c0,21.5-18.6,42.7-40.9,42.7l-37.3,2.2l-35.2-2.2c-22.2,0-42.3-21.1-42.3-42.7l0,0
				c0-21.5,13.4-39.6,35.7-39.6l41.5,2.4l42.9-2.8C240.7,77.1,254,95.7,254,117.2L254,117.2z"/>
			<g>
				<ellipse class="st8" cx="133.4" cy="119.3" rx="15.6" ry="22.8"/>
				<ellipse class="st10" cx="133.9" cy="119.1" rx="10.4" ry="15.4"/>
			</g>
			<g>
				<ellipse class="st8" cx="220" cy="119.3" rx="15.6" ry="22.8"/>
				<ellipse class="st10" cx="220.5" cy="119.7" rx="10.4" ry="15.4"/>
			</g>
			<circle class="st10" cx="175.9" cy="134.7" r="3.9"/>
			<path class="st11" d="M167.3,144.8c0,0,1.3,6.5,9.1,6.5c7.5,0,8.5-6.5,8.5-6.5"/>
			<g>
				<g>
					<path d="M88.2,137.3c2.6-3.9-5.7-4.2-7.6-4.3c-7.4-0.4-14.9,0.3-22.3,1c-9.7,0.9-19.5,2.2-29.1,4.1c-7.8,1.5-16.5,3.2-23.3,7.6
						c-0.9,0.6-0.1,2,0.8,1.4c5.6-3.7,12.5-5.2,18.9-6.7c8.5-1.9,17.1-3.1,25.7-4.1c6.1-0.7,12.2-1.3,18.3-1.6
						c1.6-0.1,18.2,0.1,17.2,1.7C86.3,137.3,87.7,138.1,88.2,137.3L88.2,137.3z"/>
				</g>
			</g>
			<g>
				<g>
					<path d="M267.3,135.9c14.1-1.2,28.4-1.4,42.6-0.4c14.8,1,30.3,3,43.9,9.4c0.9,0.4,1.7-0.9,0.8-1.4c-12.9-6.2-27.5-8.3-41.7-9.4
						c-15.1-1.2-30.4-1.1-45.6,0.2C266.3,134.4,266.2,136,267.3,135.9L267.3,135.9z"/>
				</g>
			</g>
			<g>
				<g>
					<path d="M273.6,126.8c14-2.4,29.1-1.2,43.2-0.4c8.2,0.4,16.4,1,24.5,2.3c3.8,0.6,11,0.9,13.8,4c0.7,0.8,1.8-0.4,1.1-1.1
						c-2.8-3.1-9-3.5-12.7-4.2c-8.1-1.3-16.2-2-24.4-2.5c-14.9-0.9-31.1-2.2-45.9,0.3C272.1,125.4,272.6,126.9,273.6,126.8
						L273.6,126.8z"/>
				</g>
			</g>
			<g>
				<g>
					<path d="M10.1,131.1c11.6-4.3,24.5-5.3,36.7-5.8c11.8-0.5,24.2-0.8,35.8,1.9c1,0.2,1.4-1.3,0.4-1.5c-11.7-2.8-24.3-2.5-36.2-2
						c-12.3,0.6-25.5,1.6-37.2,5.9C8.7,129.9,9.1,131.5,10.1,131.1L10.1,131.1z"/>
				</g>
			</g>
		</g>
		<g>
			<path d="M210,177.1c0,0,8.3,8.4,11.2,16.6c2.4,6.6,15.5,6.5,15.5,6.5s19.7-3.4,24.8-18c5.1-14.7,24.6-12.8,25.1-9.3
				c0.5,3.5-9.9,5.6-13,11.7c-3.1,6.1-9.5,23.8-16.6,26.5c-29.6,11.4-36.3,2.6-38.4,1.8"/>
			<g>

					<ellipse transform="matrix(0.9955 -9.465076e-02 9.465076e-02 0.9955 -18.4545 22.5109)" class="st8" cx="228.1" cy="205.8" rx="2.8" ry="1.8"/>

					<ellipse transform="matrix(0.9955 -9.480363e-02 9.480363e-02 0.9955 -18.478 23.3998)" class="st8" cx="237" cy="206.2" rx="2.8" ry="1.8"/>

					<ellipse transform="matrix(0.9955 -9.477937e-02 9.477937e-02 0.9955 -18.3095 24.1655)" class="st8" cx="245.2" cy="204.8" rx="2.8" ry="1.8"/>

					<ellipse transform="matrix(0.9955 -9.514879e-02 9.514879e-02 0.9955 -17.988 25.0071)" class="st8" cx="253.2" cy="201.1" rx="2.8" ry="1.8"/>

					<ellipse transform="matrix(0.9955 -9.477919e-02 9.477919e-02 0.9955 -17.3997 25.4014)" class="st8" cx="258.7" cy="195.9" rx="2.8" ry="1.8"/>

					<ellipse transform="matrix(0.9955 -9.503415e-02 9.503415e-02 0.9955 -16.8864 25.7932)" class="st8" cx="262.4" cy="190.2" rx="2.8" ry="1.8"/>

					<ellipse transform="matrix(0.9955 -9.477937e-02 9.477937e-02 0.9955 -16.2332 26.0341)" class="st8" cx="265.9" cy="183.9" rx="2.8" ry="1.8"/>

					<ellipse transform="matrix(0.9955 -9.477816e-02 9.477816e-02 0.9955 -15.6776 26.3539)" class="st8" cx="269.6" cy="178.2" rx="2.8" ry="1.8"/>

					<ellipse transform="matrix(0.9955 -9.477937e-02 9.477937e-02 0.9955 -15.2584 26.9205)" class="st8" cx="275.8" cy="174.1" rx="2.8" ry="1.8"/>
			</g>
		</g>
	</g>
	<polygon class="st12" points="260.8,297.8 165.2,323.1 165.2,231.4 260.8,208.8 	"/>
	<g>
		<defs>
			<polygon id="SVGID_2_" points="165.2,323.2 92.9,292.4 92.9,206.9 165.3,231.4 			"/>
		</defs>
		<use xlink:href="#SVGID_2_"  style="overflow:visible;fill:#CCCCCC;"/>
		<clipPath id="SVGID_3_">
			<use xlink:href="#SVGID_2_"  style="overflow:visible;"/>
		</clipPath>
	</g>
	<linearGradient id="SVGID_4_" gradientUnits="userSpaceOnUse" x1="165.2532" y1="238.8361" x2="293.0046" y2="238.8361">
		<stop  offset="0" style="stop-color:#D9D9D9"/>
		<stop  offset="4.274438e-02" style="stop-color:#DCDCDC"/>
		<stop  offset="0.2708" style="stop-color:#E9E9E9"/>
		<stop  offset="0.4888" style="stop-color:#EDEDED"/>
	</linearGradient>
	<polygon class="st13" points="165.3,231.4 195.6,268.9 293,245.3 260.8,208.8 	"/>
	<linearGradient id="SVGID_5_" gradientUnits="userSpaceOnUse" x1="49.2479" y1="237.9102" x2="165.2532" y2="237.9102">
		<stop  offset="0" style="stop-color:#D9D9D9"/>
		<stop  offset="0.3821" style="stop-color:#E4E4E4"/>
		<stop  offset="0.7921" style="stop-color:#E8E8E8"/>
	</linearGradient>
	<polygon class="st14" points="120.7,268.9 165.3,231.4 92.9,206.9 49.2,241.4 	"/>
	<path d="M161.5,229.1c0.5,8.2,16,19.7,21,25.4c5.1,5.7,3,15.3,6.8,16.7c3.9,1.4,12.8-12.4,0.6-25.3c-12.1-12.7-13.3-21-13.3-21"/>
</g>
</svg>