<?xml version="1.0" encoding="utf-8"?>
<!-- Generator: Adobe Illustrator 19.1.0, SVG Export Plug-In . SVG Version: 6.00 Build 0)  -->
<svg version="1.1" xmlns="http://www.w3.org/2000/svg" xmlns:xlink="http://www.w3.org/1999/xlink" x="0px" y="0px"
	 viewBox="63.7 -125.3 292.6 306.6" style="enable-background:new 63.7 -125.3 292.6 306.6;" xml:space="preserve">
<style type="text/css">
	.st0{fill:#EBEBEB;}
	.st1{fill:#FF4081;}
	.st2{fill:#FFFFFF;fill-opacity:0.2;}
	.st3{fill:#FFFFFF;fill-opacity:0.1;}
	.st4{fill-opacity:0.1;}
	.st5{fill-opacity:0.2;}
	.st6{fill-opacity:0.3;}
	.st7{fill-opacity:0.4;}
	.st8{fill-opacity:0.5;}
	.st9{fill:#536DFE;}
	.st10{fill:none;}
	.st11{fill:#303F9F;}
	.st12{fill:#3F51B5;}
	.st13{fill:#7986CB;}
	.st14{fill:#B3B3B3;}
	.st15{fill:#A6120D;}
	.st16{fill:#DD1B16;}
	.st17{fill:#F2F2F2;}
	.st18{fill:#1D542B;}
	.st19{fill:#39A954;}
	.st20{display:none;opacity:0.27;}
</style>
<g id="Layer_1">
	<g>
		<circle class="st0" cx="131.7" cy="-57.3" r="68"/>
		<circle class="st0" cx="288.3" cy="13.6" r="68"/>
		<circle class="st0" cx="151.5" cy="113.3" r="68"/>
		<g transform="translate(-1.000000, 0.000000)">
			<g transform="translate(51.398438, 0.000000)">
				<path class="st1" d="M91.5-21.8l-41-71H71l41,71H91.5L91.5-21.8z"/>
				<path class="st2" d="M91.5-21.8l10.3-17.8l10.3,17.8H91.5L91.5-21.8z"/>
				<path class="st3" d="M81.3-39.6l10.3,17.8l10.3-17.8H81.3L81.3-39.6L81.3-39.6z"/>
				<path class="st4" d="M71-57.3l10.3,17.7l10.2-17.7H71L71-57.3L71-57.3z"/>
				<path class="st5" d="M71-57.3l10.3-17.8l10.2,17.8H71L71-57.3L71-57.3z"/>
				<path class="st6" d="M60.8-75.1L71-57.3l10.3-17.8H60.8L60.8-75.1L60.8-75.1z"/>
				<path class="st7" d="M60.8-75.1l10.3-17.8l10.2,17.8H60.8L60.8-75.1L60.8-75.1z"/>
				<path class="st8" d="M50.5-92.9l10.3,17.8l10.3-17.8H50.5L50.5-92.9z"/>
			</g>
			<g transform="translate(0.000000, 44.343750)">
				<path class="st9" d="M101.9-66.2l-20.5-35.5l10.3-17.8l30.8,53.3H101.9L101.9-66.2L101.9-66.2z"/>
				<path class="st2" d="M101.9-66.2L112.2-84l10.3,17.8H101.9L101.9-66.2z"/>
				<path class="st3" d="M91.6-83.9l10.3,17.8l10.3-17.8L91.6-83.9L91.6-83.9z"/>
				<path class="st10" d="M91.6-83.9l10.3-17.8l10.3,17.8H91.6L91.6-83.9z"/>
				<path class="st4" d="M81.4-101.7l10.3,17.8l10.3-17.8H81.4L81.4-101.7z"/>
				<path class="st5" d="M81.4-101.7l10.3-17.8l10.3,17.8H81.4L81.4-101.7z"/>
			</g>
			<g transform="translate(26.203125, 0.000000)">
				<path class="st11" d="M75.7-57.3L65.4-75.1l10.3-17.8L86-75.1L75.7-57.3L75.7-57.3z"/>
				<path class="st5" d="M85.9-75.1L75.7-92.9L65.4-75.1H85.9L85.9-75.1z"/>
			</g>
			<g transform="translate(179.390625, 88.687500)">
				<path class="st12" d="M-16-110.5l-10.2-17.8l10.3-17.8l10.2,17.8L-16-110.5L-16-110.5z"/>
				<path class="st5" d="M-5.7-128.3L-16-110.5l-10.2-17.8H-5.7L-5.7-128.3z"/>
			</g>
			<g transform="translate(154.195312, 0.000000)">
				<path class="st13" d="M19.5-39.6l-30.8-53.3H9.2l20.5,35.6L19.5-39.6L19.5-39.6L19.5-39.6z"/>
				<path class="st2" d="M9.2-57.3l10.3,17.8l10.2-17.8H9.2L9.2-57.3z"/>
				<path class="st3" d="M9.2-57.3l10.3-17.8l10.2,17.8H9.2L9.2-57.3z"/>
				<path class="st4" d="M-1-75.1L9.3-92.9l10.3,17.8H-1L-1-75.1z"/>
				<path class="st5" d="M-11.3-92.9L-1-75.1L9.3-92.9H-11.3L-11.3-92.9z"/>
			</g>
		</g>
		<g>
			<polygon class="st14" points="288.2,-29 248.1,-14.9 254.5,37.6 288.2,56.1 322.2,37.3 328.5,-15.2 			"/>
			<polygon class="st15" points="324.5,-12.1 288.1,-24.6 288.1,51.7 318.6,34.8 			"/>
			<polygon class="st16" points="252.6,-11.9 258,35 288.1,51.7 288.1,-24.6 			"/>
			<path class="st17" d="M298.1,16l-10,4.7h-10.6l-5,12.4l-9.2,0.2l24.8-55.1L298.1,16z M297.1,13.7l-9-17.8l-7.4,17.5h7.3
				L297.1,13.7z"/>
			<polygon class="st14" points="288.1,-21.8 288.2,-4.1 296.5,13.4 288.1,13.4 288.1,20.7 299.7,20.7 305.2,33.3 314,33.5 			"/>
		</g>
		<g>
			<path class="st18" d="M143.3,73.4c9.2-1.6,19,0.1,27.2,4.7c8.2,4.5,14.8,11.9,18.4,20.6c3.6,8.7,4.1,18.6,1.5,27.6
				c-3.6,12.5-13.3,23-25.5,27.4c-1,0.5-1.8-0.5-2-1.4c-3-8.1-6.1-16.1-9-24.2c-0.7-1.5,1.1-2,2.1-2.5c5.3-2.5,8.1-9.1,6.3-14.7
				c-1.3-4.6-5.5-8.1-10.2-8.7c-5.4-0.9-11,2.3-13.2,7.3c-2.1,4.5-1.1,10.1,2.4,13.6c1.4,1.5,3.2,2.4,5,3.3c0.8,0.4,0.5,1.5,0.3,2.2
				c-3,8-6,15.9-9,23.9c-0.2,0.7-0.9,1.5-1.7,1.2c-14.7-5.1-25.7-19.3-27.1-34.8c-1.1-10.2,1.7-20.7,7.8-29
				C122.8,81.2,132.6,75.1,143.3,73.4L143.3,73.4z"/>
			<path class="st19" d="M141.3,76.7c7.7-1.8,16-1.2,23.3,1.7c8.4,3.3,15.6,9.7,19.9,17.6c3.9,7.1,5.4,15.4,4.4,23.3
				c-1,8.2-4.7,16-10.4,22c-3.7,4-8.3,7.1-13.3,9.2c-2.8-7.4-5.6-14.8-8.3-22.2c4.5-2.3,7.8-6.7,8.4-11.8c1-6.8-3.2-13.9-9.7-16.3
				c-6-2.4-13.3-0.5-17.3,4.5c-3.9,4.6-4.6,11.5-1.8,16.8c1.5,2.9,4,5.2,6.9,6.8c-2.8,7.4-5.5,14.8-8.3,22.1
				c-7.6-3.2-14.2-8.9-18.4-16c-3.6-6-5.6-12.9-5.5-19.9c-0.1-8.6,2.9-17.3,8.2-24C124.9,83.8,132.7,78.7,141.3,76.7L141.3,76.7z"/>
			<g>
				<path class="st18" d="M203.1,149.8c-0.6-1.7-1-3.4-1.2-5.2c-0.9,1.9-2,3.7-3,5.6c-1-1.9-2.1-3.7-3-5.6c-0.3,1.8-0.7,3.5-1.2,5.3
					c-0.5,0-1,0-1.5,0c0.7-3.1,1.6-6.1,2.2-9.1c1.2,2.1,2.3,4.3,3.4,6.5c1.2-2.1,2.2-4.4,3.4-6.5c0.7,3.1,1.6,6.1,2.3,9.2
					C204.2,150,203.4,149.9,203.1,149.8z"/>
				<path class="st18" d="M189.7,142.4c0,2.5,0,5,0,7.5c-0.5,0-1,0-1.6,0c0-2.5,0-5,0-7.5c-0.9,0-1.7,0-2.6,0c0-0.4,0-0.8,0-1.2
					c2.3,0,4.5,0,6.8,0c0,0.4,0,0.8,0,1.2C191.4,142.4,190.6,142.4,189.7,142.4z"/>
			</g>
		</g>
	</g>
	<g class="st20">
		
			<image style="display:inline;overflow:visible;" width="568" height="563" id="_x36_JsNhn_1_" xlink:href="3677246424B7D22C.jpg"  transform="matrix(1 0 0 1 -59.2357 -244.6667)">
		</image>
	</g>
</g>
<g id="Layer_2">
</g>
</svg>
